/* XPM */
static char *collectible[] = {
/* columns rows colors chars-per-pixel */
"32 32 3 1",
"  c None",
". c #FFD700",
"+ c #FFA500",
/* pixels */
"                                ",
"                                ",
"                                ",
"                                ",
"                                ",
"            ........            ",
"          ............          ",
"         ..............         ",
"        .....++++......         ",
"       .....++++++......        ",
"      .....+++++++++.....       ",
"      .....+++++++++.....       ",
"     .....+++++++++++.....      ",
"     .....+++++++++++.....      ",
"     .....+++++++++++.....      ",
"     .....+++++++++++.....      ",
"     .....+++++++++++.....      ",
"     .....+++++++++++.....      ",
"      .....+++++++++.....       ",
"      .....+++++++++.....       ",
"       .....++++++......        ",
"        .....++++......         ",
"         ..............         ",
"          ............          ",
"            ........            ",
"                                ",
"                                ",
"                                ",
"                                ",
"                                ",
"                                ",
"                                "
};